<svg width="100%" height="100%" fill="#9f9e9c" xmlns="http://www.w3.org/2000/svg"><path d="M57.93 20.03a9.27 9.27 0 0 0 2.73-6.51c0-5.26-4.52-9.53-10.08-9.53a10.1 10.1 0 0 0-9.62 6.7 49.24 49.24 0 0 0-1.33-.16C37.7 6.71 33.88 4.4 33.7 4.28L29.87 2l.54 2.89a10.47 10.47 0 0 0-1.77-.6L22.8 2.97l3.19 3.67h-.08l-.48.01-4.59.44a10.35 10.35 0 0 0-7.4-3.1c-5.56 0-10.09 4.27-10.09 9.53 0 2.43 1 4.76 2.73 6.5C3.33 24.3 2 30.07 2 37.6 2 54.84 21.54 62 32 62s30-7.16 30-24.4c0-7.54-1.33-13.31-4.07-17.57m-33.55-9.9c.14.1.28.22.41.36l-1.75.2a9.29 9.29 0 0 0-1.28-2.5l2.62 1.93M32 60.07c-9.13 0-28-6.18-28-22.47 0-8.28 1.64-14 4.73-17.9a7.46 7.46 0 0 1-3.38-6.18c0-4.2 3.61-7.6 8.07-7.6 4.24 0 7.71 3.07 8.05 6.98a49.8 49.8 0 0 1 6.4-.7 6.82 6.82 0 0 0-2.28-3.62l.31-.01c.54 0 1.7.06 3.03.55 0 0 .27-1.79-.74-2.95 0 0 2.62.6 3.94 2.3 0 0 .78-1.13.52-2.54 0 0 4.17 2.49 5.6 6.41 1.5.13 2.93.31 4.28.56.34-3.9 3.8-6.98 8.05-6.98 4.46 0 8.08 3.4 8.08 7.6 0 2.55-1.35 4.8-3.4 6.18 3.1 3.9 4.74 9.63 4.74 17.9 0 16.29-18.87 22.47-28 22.47"/><path d="M10.93 17.44a19.66 19.66 0 0 1 7.33-3.78l.02-.14a4.73 4.73 0 0 0-4.86-4.59 4.73 4.73 0 0 0-4.85 4.59c0 1.67.95 3.11 2.36 3.92M53.08 17.44a4.53 4.53 0 0 0 2.36-3.92 4.73 4.73 0 0 0-4.86-4.59 4.73 4.73 0 0 0-4.86 4.59l.02.14c2.85.83 5.3 2.05 7.34 3.78M32.04 54.1c-2.3 0-4.16.55-4.16 1.22 0 .1.03.27.1.27h8.1c.07 0 .11-.17.11-.27 0-.67-1.85-1.22-4.15-1.22M23.37 45.5c0 2.75 6.87 5.2 8.63 5.2s8.63-2.45 8.63-5.2c0-3.47-3.87-4.13-8.63-4.13-4.76 0-8.63.66-8.63 4.12"/><path d="M57.32 31.61c-4.23.07-8.44.24-12.66.33-4.22.1-8.45.14-12.66.13a424.25 424.25 0 0 1-12.67-.16 393.25 393.25 0 0 1-6.32-.23 317.68 317.68 0 0 1-6.33-.33c-.04 0-.09.03-.1.07a.09.09 0 0 0 .07.11h.02c2.36.53 4.73.92 7.12 1.23a1.09 1.09 0 0 0-.19.66c0 1.46 1.52 2.65 3.4 2.65 1.86 0 3.37-1.17 3.4-2.62 2.4.18 4.81.3 7.23.37C23.45 35.34 19 38.96 19 45.24c0 11.5 5.22 13.87 13.05 13.87 7.83 0 13.05-2.36 13.05-13.87 0-6.28-4.44-9.9-8.62-11.42a163.5 163.5 0 0 0 7.13-.35c.04 1.44 1.54 2.6 3.4 2.6 1.87 0 3.39-1.19 3.39-2.65 0-.25-.06-.43-.14-.58l.77-.09c1.05-.13 2.1-.27 3.15-.44l1.57-.25 1.58-.26h.02a.1.1 0 0 0 .07-.1c0-.05-.04-.09-.1-.09M43.6 45.24c0 10.39-4.23 12.42-11.54 12.42-7.32 0-11.55-2.03-11.55-12.42 0-7.66 7.52-10.84 11.55-10.84 4.02 0 11.55 3.18 11.55 10.85"/></svg>